# xmcd
#
# Track frame offsets: 
#        150
#        21340
#        45177
#        64864
#        82900
#        109370
#        128857
#        145132
#        165995
#        183697
#
# Disc length: 2699 seconds
#
# Revision: 1
# Processed by: cddbd v1.5.2PL0 Copyright (c) Steve Scherf et al.
# Submitted via: ExactAudioCopy v1.0b3
#
DISCID=810a890a
DTITLE=Tyrone Davis - Simply Tyrone Davis
DYEAR=1996
DGENRE=Soul
TTITLE0=Ain't That Good Enough
TTITLE1=My Key
TTITLE2=Freak
TTITLE3=I Wish It Was Me
TTITLE4=Where Are You Lady
TTITLE5=Please
TTITLE6=Linger A Little Longer
TTITLE7=Never Ever Let You Go
TTITLE8=In The Mood For Love
TTITLE9=Can I Squeeze You
EXTD=
EXTT0=
EXTT1=
EXTT2=
EXTT3=
EXTT4=
EXTT5=
EXTT6=
EXTT7=
EXTT8=
EXTT9=
PLAYORDER=
